<mxfile host="app.diagrams.net" modified="2024-01-05T11:02:37.316Z" agent="Mozilla/5.0 (Windows NT 10.0; Win64; x64) AppleWebKit/537.36 (KHTML, like Gecko) Chrome/120.0.0.0 Safari/537.36 Edg/120.0.0.0" etag="LrhtOwMsCiDLPMwZmHSb" version="22.1.16" type="device">
  <diagram name="Страница — 1" id="a0039gpGuNr3NO7Vex6z">
    <mxGraphModel dx="1829" dy="569" grid="1" gridSize="10" guides="1" tooltips="1" connect="1" arrows="1" fold="1" page="1" pageScale="1" pageWidth="827" pageHeight="1169" math="0" shadow="0">
      <root>
        <mxCell id="0" />
        <mxCell id="1" parent="0" />
        <mxCell id="ncJrujkqdV2YsNTOufrD-1" value="Лазерная резка металла" style="swimlane;html=1;childLayout=stackLayout;resizeParent=1;resizeParentMax=0;horizontal=1;startSize=20;horizontalStack=0;whiteSpace=wrap;" parent="1" vertex="1">
          <mxGeometry x="-73" y="70" width="1170" height="900" as="geometry" />
        </mxCell>
        <mxCell id="ncJrujkqdV2YsNTOufrD-2" value="Менеджер по продажам" style="swimlane;html=1;startSize=20;horizontal=0;" parent="ncJrujkqdV2YsNTOufrD-1" vertex="1">
          <mxGeometry y="20" width="1170" height="330" as="geometry" />
        </mxCell>
        <mxCell id="ncJrujkqdV2YsNTOufrD-11" style="edgeStyle=orthogonalEdgeStyle;rounded=0;orthogonalLoop=1;jettySize=auto;html=1;exitX=1;exitY=0.5;exitDx=0;exitDy=0;exitPerimeter=0;" parent="ncJrujkqdV2YsNTOufrD-2" source="ncJrujkqdV2YsNTOufrD-10" edge="1">
          <mxGeometry relative="1" as="geometry">
            <mxPoint x="167" y="85" as="targetPoint" />
          </mxGeometry>
        </mxCell>
        <mxCell id="ncJrujkqdV2YsNTOufrD-10" value="Получение заявки" style="points=[[0.145,0.145,0],[0.5,0,0],[0.855,0.145,0],[1,0.5,0],[0.855,0.855,0],[0.5,1,0],[0.145,0.855,0],[0,0.5,0]];shape=mxgraph.bpmn.event;html=1;verticalLabelPosition=bottom;labelBackgroundColor=#ffffff;verticalAlign=top;align=center;perimeter=ellipsePerimeter;outlineConnect=0;aspect=fixed;outline=standard;symbol=message;" parent="ncJrujkqdV2YsNTOufrD-2" vertex="1">
          <mxGeometry x="67" y="60" width="50" height="50" as="geometry" />
        </mxCell>
        <mxCell id="ncJrujkqdV2YsNTOufrD-12" value="Оформление заявки" style="points=[[0.25,0,0],[0.5,0,0],[0.75,0,0],[1,0.25,0],[1,0.5,0],[1,0.75,0],[0.75,1,0],[0.5,1,0],[0.25,1,0],[0,0.75,0],[0,0.5,0],[0,0.25,0]];shape=mxgraph.bpmn.task;whiteSpace=wrap;rectStyle=rounded;size=10;html=1;container=1;expand=0;collapsible=0;taskMarker=abstract;" parent="ncJrujkqdV2YsNTOufrD-2" vertex="1">
          <mxGeometry x="167" y="60" width="120" height="50" as="geometry" />
        </mxCell>
        <mxCell id="ncJrujkqdV2YsNTOufrD-13" value="Битрикс" style="shape=datastore;html=1;labelPosition=center;verticalLabelPosition=bottom;align=center;verticalAlign=top;" parent="ncJrujkqdV2YsNTOufrD-2" vertex="1">
          <mxGeometry x="57" y="185" width="100" height="70" as="geometry" />
        </mxCell>
        <mxCell id="ncJrujkqdV2YsNTOufrD-17" style="edgeStyle=orthogonalEdgeStyle;rounded=0;orthogonalLoop=1;jettySize=auto;html=1;exitX=0;exitY=0.5;exitDx=0;exitDy=0;exitPerimeter=0;entryX=1;entryY=0.5;entryDx=0;entryDy=0;dashed=1;" parent="ncJrujkqdV2YsNTOufrD-2" source="ncJrujkqdV2YsNTOufrD-15" target="ncJrujkqdV2YsNTOufrD-13" edge="1">
          <mxGeometry relative="1" as="geometry" />
        </mxCell>
        <mxCell id="ncJrujkqdV2YsNTOufrD-15" value="Данные о заказе&lt;br&gt;и клиенте" style="shape=mxgraph.bpmn.data;labelPosition=center;verticalLabelPosition=bottom;align=center;verticalAlign=top;size=15;html=1;" parent="ncJrujkqdV2YsNTOufrD-2" vertex="1">
          <mxGeometry x="277" y="155" width="40" height="60" as="geometry" />
        </mxCell>
        <mxCell id="YiAbQRiZ3VMbAEbha5EH-1" style="edgeStyle=orthogonalEdgeStyle;rounded=0;orthogonalLoop=1;jettySize=auto;html=1;exitX=0.5;exitY=1;exitDx=0;exitDy=0;exitPerimeter=0;entryX=0;entryY=0;entryDx=12.5;entryDy=0;entryPerimeter=0;dashed=1;" edge="1" parent="ncJrujkqdV2YsNTOufrD-2" source="ncJrujkqdV2YsNTOufrD-12" target="ncJrujkqdV2YsNTOufrD-15">
          <mxGeometry relative="1" as="geometry" />
        </mxCell>
        <mxCell id="YiAbQRiZ3VMbAEbha5EH-6" value="Оплата" style="points=[[0.25,0,0],[0.5,0,0],[0.75,0,0],[1,0.25,0],[1,0.5,0],[1,0.75,0],[0.75,1,0],[0.5,1,0],[0.25,1,0],[0,0.75,0],[0,0.5,0],[0,0.25,0]];shape=mxgraph.bpmn.task;whiteSpace=wrap;rectStyle=rounded;size=10;html=1;container=1;expand=0;collapsible=0;taskMarker=abstract;" vertex="1" parent="ncJrujkqdV2YsNTOufrD-2">
          <mxGeometry x="367" y="60" width="120" height="50" as="geometry" />
        </mxCell>
        <mxCell id="YiAbQRiZ3VMbAEbha5EH-7" style="edgeStyle=orthogonalEdgeStyle;rounded=0;orthogonalLoop=1;jettySize=auto;html=1;exitX=1;exitY=0.5;exitDx=0;exitDy=0;exitPerimeter=0;entryX=0;entryY=0.5;entryDx=0;entryDy=0;entryPerimeter=0;" edge="1" parent="ncJrujkqdV2YsNTOufrD-2" source="ncJrujkqdV2YsNTOufrD-12" target="YiAbQRiZ3VMbAEbha5EH-6">
          <mxGeometry relative="1" as="geometry" />
        </mxCell>
        <mxCell id="YiAbQRiZ3VMbAEbha5EH-8" value="" style="points=[[0.25,0.25,0],[0.5,0,0],[0.75,0.25,0],[1,0.5,0],[0.75,0.75,0],[0.5,1,0],[0.25,0.75,0],[0,0.5,0]];shape=mxgraph.bpmn.gateway2;html=1;verticalLabelPosition=bottom;labelBackgroundColor=#ffffff;verticalAlign=top;align=center;perimeter=rhombusPerimeter;outlineConnect=0;outline=none;symbol=none;gwType=exclusive;" vertex="1" parent="ncJrujkqdV2YsNTOufrD-2">
          <mxGeometry x="543" y="60" width="50" height="50" as="geometry" />
        </mxCell>
        <mxCell id="YiAbQRiZ3VMbAEbha5EH-9" style="edgeStyle=orthogonalEdgeStyle;rounded=0;orthogonalLoop=1;jettySize=auto;html=1;exitX=1;exitY=0.5;exitDx=0;exitDy=0;exitPerimeter=0;entryX=0;entryY=0.5;entryDx=0;entryDy=0;entryPerimeter=0;" edge="1" parent="ncJrujkqdV2YsNTOufrD-2" source="YiAbQRiZ3VMbAEbha5EH-6" target="YiAbQRiZ3VMbAEbha5EH-8">
          <mxGeometry relative="1" as="geometry" />
        </mxCell>
        <mxCell id="YiAbQRiZ3VMbAEbha5EH-11" value="Отмена заказа" style="points=[[0.25,0,0],[0.5,0,0],[0.75,0,0],[1,0.25,0],[1,0.5,0],[1,0.75,0],[0.75,1,0],[0.5,1,0],[0.25,1,0],[0,0.75,0],[0,0.5,0],[0,0.25,0]];shape=mxgraph.bpmn.task;whiteSpace=wrap;rectStyle=rounded;size=10;html=1;container=1;expand=0;collapsible=0;taskMarker=abstract;" vertex="1" parent="ncJrujkqdV2YsNTOufrD-2">
          <mxGeometry x="633" y="20" width="80" height="40" as="geometry" />
        </mxCell>
        <mxCell id="YiAbQRiZ3VMbAEbha5EH-12" value="Оплата получена" style="points=[[0.25,0,0],[0.5,0,0],[0.75,0,0],[1,0.25,0],[1,0.5,0],[1,0.75,0],[0.75,1,0],[0.5,1,0],[0.25,1,0],[0,0.75,0],[0,0.5,0],[0,0.25,0]];shape=mxgraph.bpmn.task;whiteSpace=wrap;rectStyle=rounded;size=10;html=1;container=1;expand=0;collapsible=0;taskMarker=abstract;" vertex="1" parent="ncJrujkqdV2YsNTOufrD-2">
          <mxGeometry x="633" y="115" width="80" height="40" as="geometry" />
        </mxCell>
        <mxCell id="YiAbQRiZ3VMbAEbha5EH-13" style="edgeStyle=orthogonalEdgeStyle;rounded=0;orthogonalLoop=1;jettySize=auto;html=1;exitX=0.5;exitY=0;exitDx=0;exitDy=0;exitPerimeter=0;entryX=0;entryY=0.25;entryDx=0;entryDy=0;entryPerimeter=0;" edge="1" parent="ncJrujkqdV2YsNTOufrD-2" source="YiAbQRiZ3VMbAEbha5EH-8" target="YiAbQRiZ3VMbAEbha5EH-11">
          <mxGeometry relative="1" as="geometry" />
        </mxCell>
        <mxCell id="YiAbQRiZ3VMbAEbha5EH-14" value="нет" style="edgeLabel;html=1;align=center;verticalAlign=middle;resizable=0;points=[];" vertex="1" connectable="0" parent="YiAbQRiZ3VMbAEbha5EH-13">
          <mxGeometry x="0.3389" y="-2" relative="1" as="geometry">
            <mxPoint as="offset" />
          </mxGeometry>
        </mxCell>
        <mxCell id="YiAbQRiZ3VMbAEbha5EH-17" style="edgeStyle=orthogonalEdgeStyle;rounded=0;orthogonalLoop=1;jettySize=auto;html=1;exitX=0.5;exitY=1;exitDx=0;exitDy=0;exitPerimeter=0;entryX=0;entryY=0.75;entryDx=0;entryDy=0;entryPerimeter=0;" edge="1" parent="ncJrujkqdV2YsNTOufrD-2" source="YiAbQRiZ3VMbAEbha5EH-8" target="YiAbQRiZ3VMbAEbha5EH-12">
          <mxGeometry relative="1" as="geometry" />
        </mxCell>
        <mxCell id="YiAbQRiZ3VMbAEbha5EH-18" value="есть" style="edgeLabel;html=1;align=center;verticalAlign=middle;resizable=0;points=[];" vertex="1" connectable="0" parent="YiAbQRiZ3VMbAEbha5EH-17">
          <mxGeometry x="0.172" y="5" relative="1" as="geometry">
            <mxPoint as="offset" />
          </mxGeometry>
        </mxCell>
        <mxCell id="YiAbQRiZ3VMbAEbha5EH-20" value="" style="points=[[0.145,0.145,0],[0.5,0,0],[0.855,0.145,0],[1,0.5,0],[0.855,0.855,0],[0.5,1,0],[0.145,0.855,0],[0,0.5,0]];shape=mxgraph.bpmn.event;html=1;verticalLabelPosition=bottom;labelBackgroundColor=#ffffff;verticalAlign=top;align=center;perimeter=ellipsePerimeter;outlineConnect=0;aspect=fixed;outline=end;symbol=terminate2;fillColor=#f8cecc;strokeColor=#b85450;" vertex="1" parent="ncJrujkqdV2YsNTOufrD-2">
          <mxGeometry x="753" y="15" width="50" height="50" as="geometry" />
        </mxCell>
        <mxCell id="YiAbQRiZ3VMbAEbha5EH-19" style="edgeStyle=orthogonalEdgeStyle;rounded=0;orthogonalLoop=1;jettySize=auto;html=1;exitX=1;exitY=0.5;exitDx=0;exitDy=0;exitPerimeter=0;" edge="1" parent="ncJrujkqdV2YsNTOufrD-2" source="YiAbQRiZ3VMbAEbha5EH-11" target="YiAbQRiZ3VMbAEbha5EH-20">
          <mxGeometry relative="1" as="geometry">
            <mxPoint x="763" y="40" as="targetPoint" />
          </mxGeometry>
        </mxCell>
        <mxCell id="YiAbQRiZ3VMbAEbha5EH-76" style="edgeStyle=orthogonalEdgeStyle;rounded=0;orthogonalLoop=1;jettySize=auto;html=1;exitX=1;exitY=0.5;exitDx=0;exitDy=0;exitPerimeter=0;" edge="1" parent="ncJrujkqdV2YsNTOufrD-2" source="YiAbQRiZ3VMbAEbha5EH-74">
          <mxGeometry relative="1" as="geometry">
            <mxPoint x="883" y="135" as="targetPoint" />
          </mxGeometry>
        </mxCell>
        <mxCell id="YiAbQRiZ3VMbAEbha5EH-74" value="Получение инфо&lt;br&gt;о готовности заказа" style="points=[[0.145,0.145,0],[0.5,0,0],[0.855,0.145,0],[1,0.5,0],[0.855,0.855,0],[0.5,1,0],[0.145,0.855,0],[0,0.5,0]];shape=mxgraph.bpmn.event;html=1;verticalLabelPosition=bottom;labelBackgroundColor=#ffffff;verticalAlign=top;align=center;perimeter=ellipsePerimeter;outlineConnect=0;aspect=fixed;outline=standard;symbol=message;" vertex="1" parent="ncJrujkqdV2YsNTOufrD-2">
          <mxGeometry x="763" y="110" width="50" height="50" as="geometry" />
        </mxCell>
        <mxCell id="YiAbQRiZ3VMbAEbha5EH-75" style="edgeStyle=orthogonalEdgeStyle;rounded=0;orthogonalLoop=1;jettySize=auto;html=1;exitX=1;exitY=0.5;exitDx=0;exitDy=0;exitPerimeter=0;entryX=0;entryY=0.5;entryDx=0;entryDy=0;entryPerimeter=0;" edge="1" parent="ncJrujkqdV2YsNTOufrD-2" source="YiAbQRiZ3VMbAEbha5EH-12" target="YiAbQRiZ3VMbAEbha5EH-74">
          <mxGeometry relative="1" as="geometry" />
        </mxCell>
        <mxCell id="YiAbQRiZ3VMbAEbha5EH-77" value="Сообщение&lt;br&gt;заказчику" style="points=[[0.145,0.145,0],[0.5,0,0],[0.855,0.145,0],[1,0.5,0],[0.855,0.855,0],[0.5,1,0],[0.145,0.855,0],[0,0.5,0]];shape=mxgraph.bpmn.event;html=1;verticalLabelPosition=bottom;labelBackgroundColor=#ffffff;verticalAlign=top;align=center;perimeter=ellipsePerimeter;outlineConnect=0;aspect=fixed;outline=standard;symbol=message;" vertex="1" parent="ncJrujkqdV2YsNTOufrD-2">
          <mxGeometry x="883" y="110" width="50" height="50" as="geometry" />
        </mxCell>
        <mxCell id="YiAbQRiZ3VMbAEbha5EH-78" value="Доставка заказа" style="points=[[0.25,0,0],[0.5,0,0],[0.75,0,0],[1,0.25,0],[1,0.5,0],[1,0.75,0],[0.75,1,0],[0.5,1,0],[0.25,1,0],[0,0.75,0],[0,0.5,0],[0,0.25,0]];shape=mxgraph.bpmn.task;whiteSpace=wrap;rectStyle=rounded;size=10;html=1;container=1;expand=0;collapsible=0;taskMarker=abstract;" vertex="1" parent="ncJrujkqdV2YsNTOufrD-2">
          <mxGeometry x="963" y="185" width="107" height="55" as="geometry" />
        </mxCell>
        <mxCell id="YiAbQRiZ3VMbAEbha5EH-79" style="edgeStyle=orthogonalEdgeStyle;rounded=0;orthogonalLoop=1;jettySize=auto;html=1;exitX=1;exitY=0.5;exitDx=0;exitDy=0;exitPerimeter=0;entryX=0.5;entryY=0;entryDx=0;entryDy=0;entryPerimeter=0;" edge="1" parent="ncJrujkqdV2YsNTOufrD-2" source="YiAbQRiZ3VMbAEbha5EH-77" target="YiAbQRiZ3VMbAEbha5EH-78">
          <mxGeometry relative="1" as="geometry" />
        </mxCell>
        <mxCell id="YiAbQRiZ3VMbAEbha5EH-80" value="Получение и подтверждение заказчиком" style="points=[[0.25,0,0],[0.5,0,0],[0.75,0,0],[1,0.25,0],[1,0.5,0],[1,0.75,0],[0.75,1,0],[0.5,1,0],[0.25,1,0],[0,0.75,0],[0,0.5,0],[0,0.25,0]];shape=mxgraph.bpmn.task;whiteSpace=wrap;rectStyle=rounded;size=10;html=1;container=1;expand=0;collapsible=0;taskMarker=abstract;" vertex="1" parent="ncJrujkqdV2YsNTOufrD-2">
          <mxGeometry x="963" y="255" width="107" height="55" as="geometry" />
        </mxCell>
        <mxCell id="YiAbQRiZ3VMbAEbha5EH-81" style="edgeStyle=orthogonalEdgeStyle;rounded=0;orthogonalLoop=1;jettySize=auto;html=1;exitX=0.5;exitY=1;exitDx=0;exitDy=0;exitPerimeter=0;entryX=0.5;entryY=0;entryDx=0;entryDy=0;entryPerimeter=0;" edge="1" parent="ncJrujkqdV2YsNTOufrD-2" source="YiAbQRiZ3VMbAEbha5EH-78" target="YiAbQRiZ3VMbAEbha5EH-80">
          <mxGeometry relative="1" as="geometry" />
        </mxCell>
        <mxCell id="YiAbQRiZ3VMbAEbha5EH-82" value="" style="points=[[0.145,0.145,0],[0.5,0,0],[0.855,0.145,0],[1,0.5,0],[0.855,0.855,0],[0.5,1,0],[0.145,0.855,0],[0,0.5,0]];shape=mxgraph.bpmn.event;html=1;verticalLabelPosition=bottom;labelBackgroundColor=#ffffff;verticalAlign=top;align=center;perimeter=ellipsePerimeter;outlineConnect=0;aspect=fixed;outline=end;symbol=terminate2;fillColor=#d5e8d4;strokeColor=#82b366;" vertex="1" parent="ncJrujkqdV2YsNTOufrD-2">
          <mxGeometry x="1103" y="257.5" width="50" height="50" as="geometry" />
        </mxCell>
        <mxCell id="YiAbQRiZ3VMbAEbha5EH-83" style="edgeStyle=orthogonalEdgeStyle;rounded=0;orthogonalLoop=1;jettySize=auto;html=1;exitX=1;exitY=0.5;exitDx=0;exitDy=0;exitPerimeter=0;entryX=0;entryY=0.5;entryDx=0;entryDy=0;entryPerimeter=0;" edge="1" parent="ncJrujkqdV2YsNTOufrD-2" source="YiAbQRiZ3VMbAEbha5EH-80" target="YiAbQRiZ3VMbAEbha5EH-82">
          <mxGeometry relative="1" as="geometry" />
        </mxCell>
        <mxCell id="ncJrujkqdV2YsNTOufrD-3" value="Оператор станка с ПУ" style="swimlane;html=1;startSize=20;horizontal=0;" parent="ncJrujkqdV2YsNTOufrD-1" vertex="1">
          <mxGeometry y="350" width="1170" height="280" as="geometry">
            <mxRectangle y="140" width="900" height="30" as="alternateBounds" />
          </mxGeometry>
        </mxCell>
        <mxCell id="YiAbQRiZ3VMbAEbha5EH-24" style="edgeStyle=orthogonalEdgeStyle;rounded=0;orthogonalLoop=1;jettySize=auto;html=1;exitX=0;exitY=0.5;exitDx=0;exitDy=0;exitPerimeter=0;entryX=0;entryY=0.5;entryDx=0;entryDy=0;dashed=1;" edge="1" parent="ncJrujkqdV2YsNTOufrD-3" source="YiAbQRiZ3VMbAEbha5EH-21" target="YiAbQRiZ3VMbAEbha5EH-23">
          <mxGeometry relative="1" as="geometry">
            <Array as="points">
              <mxPoint x="33" y="75" />
              <mxPoint x="33" y="200" />
            </Array>
          </mxGeometry>
        </mxCell>
        <mxCell id="YiAbQRiZ3VMbAEbha5EH-21" value="Получение инфо&lt;br&gt;о заказе" style="points=[[0.145,0.145,0],[0.5,0,0],[0.855,0.145,0],[1,0.5,0],[0.855,0.855,0],[0.5,1,0],[0.145,0.855,0],[0,0.5,0]];shape=mxgraph.bpmn.event;html=1;verticalLabelPosition=bottom;labelBackgroundColor=#ffffff;verticalAlign=top;align=center;perimeter=ellipsePerimeter;outlineConnect=0;aspect=fixed;outline=standard;symbol=message;" vertex="1" parent="ncJrujkqdV2YsNTOufrD-3">
          <mxGeometry x="73" y="50" width="50" height="50" as="geometry" />
        </mxCell>
        <mxCell id="YiAbQRiZ3VMbAEbha5EH-23" value="Битрикс" style="shape=datastore;html=1;labelPosition=center;verticalLabelPosition=bottom;align=center;verticalAlign=top;" vertex="1" parent="ncJrujkqdV2YsNTOufrD-3">
          <mxGeometry x="48" y="165" width="100" height="70" as="geometry" />
        </mxCell>
        <mxCell id="YiAbQRiZ3VMbAEbha5EH-29" style="edgeStyle=orthogonalEdgeStyle;rounded=0;orthogonalLoop=1;jettySize=auto;html=1;exitX=1;exitY=0.5;exitDx=0;exitDy=0;exitPerimeter=0;" edge="1" parent="ncJrujkqdV2YsNTOufrD-3" source="YiAbQRiZ3VMbAEbha5EH-26">
          <mxGeometry relative="1" as="geometry">
            <mxPoint x="343" y="75" as="targetPoint" />
          </mxGeometry>
        </mxCell>
        <mxCell id="YiAbQRiZ3VMbAEbha5EH-26" value="Проверка&amp;nbsp;&lt;br&gt;наличия металла" style="points=[[0.25,0,0],[0.5,0,0],[0.75,0,0],[1,0.25,0],[1,0.5,0],[1,0.75,0],[0.75,1,0],[0.5,1,0],[0.25,1,0],[0,0.75,0],[0,0.5,0],[0,0.25,0]];shape=mxgraph.bpmn.task;whiteSpace=wrap;rectStyle=rounded;size=10;html=1;container=1;expand=0;collapsible=0;taskMarker=abstract;" vertex="1" parent="ncJrujkqdV2YsNTOufrD-3">
          <mxGeometry x="183" y="50" width="120" height="50" as="geometry" />
        </mxCell>
        <mxCell id="YiAbQRiZ3VMbAEbha5EH-27" style="edgeStyle=orthogonalEdgeStyle;rounded=0;orthogonalLoop=1;jettySize=auto;html=1;exitX=1;exitY=0.5;exitDx=0;exitDy=0;exitPerimeter=0;entryX=0;entryY=0.5;entryDx=0;entryDy=0;entryPerimeter=0;" edge="1" parent="ncJrujkqdV2YsNTOufrD-3" source="YiAbQRiZ3VMbAEbha5EH-21" target="YiAbQRiZ3VMbAEbha5EH-26">
          <mxGeometry relative="1" as="geometry" />
        </mxCell>
        <mxCell id="YiAbQRiZ3VMbAEbha5EH-30" value="" style="points=[[0.25,0.25,0],[0.5,0,0],[0.75,0.25,0],[1,0.5,0],[0.75,0.75,0],[0.5,1,0],[0.25,0.75,0],[0,0.5,0]];shape=mxgraph.bpmn.gateway2;html=1;verticalLabelPosition=bottom;labelBackgroundColor=#ffffff;verticalAlign=top;align=center;perimeter=rhombusPerimeter;outlineConnect=0;outline=none;symbol=none;gwType=exclusive;" vertex="1" parent="ncJrujkqdV2YsNTOufrD-3">
          <mxGeometry x="343" y="50" width="50" height="50" as="geometry" />
        </mxCell>
        <mxCell id="YiAbQRiZ3VMbAEbha5EH-41" style="edgeStyle=orthogonalEdgeStyle;rounded=0;orthogonalLoop=1;jettySize=auto;html=1;exitX=1;exitY=0.5;exitDx=0;exitDy=0;exitPerimeter=0;" edge="1" parent="ncJrujkqdV2YsNTOufrD-3" source="YiAbQRiZ3VMbAEbha5EH-32">
          <mxGeometry relative="1" as="geometry">
            <mxPoint x="683" y="60" as="targetPoint" />
          </mxGeometry>
        </mxCell>
        <mxCell id="YiAbQRiZ3VMbAEbha5EH-32" value="загрузка листа на стол" style="points=[[0.25,0,0],[0.5,0,0],[0.75,0,0],[1,0.25,0],[1,0.5,0],[1,0.75,0],[0.75,1,0],[0.5,1,0],[0.25,1,0],[0,0.75,0],[0,0.5,0],[0,0.25,0]];shape=mxgraph.bpmn.task;whiteSpace=wrap;rectStyle=rounded;size=10;html=1;container=1;expand=0;collapsible=0;taskMarker=abstract;" vertex="1" parent="ncJrujkqdV2YsNTOufrD-3">
          <mxGeometry x="553" y="40" width="97" height="40" as="geometry" />
        </mxCell>
        <mxCell id="YiAbQRiZ3VMbAEbha5EH-38" value="Сообщить&amp;nbsp;&lt;br&gt;нач-ку пр-ва" style="points=[[0.25,0,0],[0.5,0,0],[0.75,0,0],[1,0.25,0],[1,0.5,0],[1,0.75,0],[0.75,1,0],[0.5,1,0],[0.25,1,0],[0,0.75,0],[0,0.5,0],[0,0.25,0]];shape=mxgraph.bpmn.task;whiteSpace=wrap;rectStyle=rounded;size=10;html=1;container=1;expand=0;collapsible=0;taskMarker=abstract;" vertex="1" parent="ncJrujkqdV2YsNTOufrD-3">
          <mxGeometry x="423" y="100" width="97" height="40" as="geometry" />
        </mxCell>
        <mxCell id="YiAbQRiZ3VMbAEbha5EH-39" style="edgeStyle=orthogonalEdgeStyle;rounded=0;orthogonalLoop=1;jettySize=auto;html=1;exitX=0.5;exitY=1;exitDx=0;exitDy=0;exitPerimeter=0;entryX=0;entryY=0.5;entryDx=0;entryDy=0;entryPerimeter=0;" edge="1" parent="ncJrujkqdV2YsNTOufrD-3" source="YiAbQRiZ3VMbAEbha5EH-30" target="YiAbQRiZ3VMbAEbha5EH-38">
          <mxGeometry relative="1" as="geometry" />
        </mxCell>
        <mxCell id="YiAbQRiZ3VMbAEbha5EH-40" value="нет" style="edgeLabel;html=1;align=center;verticalAlign=middle;resizable=0;points=[];" vertex="1" connectable="0" parent="YiAbQRiZ3VMbAEbha5EH-39">
          <mxGeometry x="0.1093" y="2" relative="1" as="geometry">
            <mxPoint as="offset" />
          </mxGeometry>
        </mxCell>
        <mxCell id="YiAbQRiZ3VMbAEbha5EH-65" style="edgeStyle=orthogonalEdgeStyle;rounded=0;orthogonalLoop=1;jettySize=auto;html=1;exitX=1;exitY=0.5;exitDx=0;exitDy=0;exitPerimeter=0;" edge="1" parent="ncJrujkqdV2YsNTOufrD-3" source="YiAbQRiZ3VMbAEbha5EH-42">
          <mxGeometry relative="1" as="geometry">
            <mxPoint x="813" y="60" as="targetPoint" />
          </mxGeometry>
        </mxCell>
        <mxCell id="YiAbQRiZ3VMbAEbha5EH-42" value="подготовка программы резки" style="points=[[0.25,0,0],[0.5,0,0],[0.75,0,0],[1,0.25,0],[1,0.5,0],[1,0.75,0],[0.75,1,0],[0.5,1,0],[0.25,1,0],[0,0.75,0],[0,0.5,0],[0,0.25,0]];shape=mxgraph.bpmn.task;whiteSpace=wrap;rectStyle=rounded;size=10;html=1;container=1;expand=0;collapsible=0;taskMarker=abstract;" vertex="1" parent="ncJrujkqdV2YsNTOufrD-3">
          <mxGeometry x="683" y="40" width="97" height="40" as="geometry" />
        </mxCell>
        <mxCell id="YiAbQRiZ3VMbAEbha5EH-59" value="выгрузка металла&lt;br&gt;в цеху" style="points=[[0.25,0,0],[0.5,0,0],[0.75,0,0],[1,0.25,0],[1,0.5,0],[1,0.75,0],[0.75,1,0],[0.5,1,0],[0.25,1,0],[0,0.75,0],[0,0.5,0],[0,0.25,0]];shape=mxgraph.bpmn.task;whiteSpace=wrap;rectStyle=rounded;size=10;html=1;container=1;expand=0;collapsible=0;taskMarker=abstract;" vertex="1" parent="ncJrujkqdV2YsNTOufrD-3">
          <mxGeometry x="553" y="165" width="120" height="55" as="geometry" />
        </mxCell>
        <mxCell id="YiAbQRiZ3VMbAEbha5EH-62" style="edgeStyle=orthogonalEdgeStyle;rounded=0;orthogonalLoop=1;jettySize=auto;html=1;exitX=0.5;exitY=0;exitDx=0;exitDy=0;exitPerimeter=0;entryX=0.5;entryY=0;entryDx=0;entryDy=0;entryPerimeter=0;" edge="1" parent="ncJrujkqdV2YsNTOufrD-3" source="YiAbQRiZ3VMbAEbha5EH-30" target="YiAbQRiZ3VMbAEbha5EH-32">
          <mxGeometry relative="1" as="geometry" />
        </mxCell>
        <mxCell id="YiAbQRiZ3VMbAEbha5EH-63" value="есть" style="edgeLabel;html=1;align=center;verticalAlign=middle;resizable=0;points=[];" vertex="1" connectable="0" parent="YiAbQRiZ3VMbAEbha5EH-62">
          <mxGeometry x="0.0399" y="1" relative="1" as="geometry">
            <mxPoint as="offset" />
          </mxGeometry>
        </mxCell>
        <mxCell id="YiAbQRiZ3VMbAEbha5EH-64" style="edgeStyle=orthogonalEdgeStyle;rounded=0;orthogonalLoop=1;jettySize=auto;html=1;exitX=0.5;exitY=0;exitDx=0;exitDy=0;exitPerimeter=0;entryX=0.5;entryY=1;entryDx=0;entryDy=0;entryPerimeter=0;" edge="1" parent="ncJrujkqdV2YsNTOufrD-3" source="YiAbQRiZ3VMbAEbha5EH-59" target="YiAbQRiZ3VMbAEbha5EH-32">
          <mxGeometry relative="1" as="geometry" />
        </mxCell>
        <mxCell id="YiAbQRiZ3VMbAEbha5EH-66" value="резка изделий" style="points=[[0.25,0,0],[0.5,0,0],[0.75,0,0],[1,0.25,0],[1,0.5,0],[1,0.75,0],[0.75,1,0],[0.5,1,0],[0.25,1,0],[0,0.75,0],[0,0.5,0],[0,0.25,0]];shape=mxgraph.bpmn.task;whiteSpace=wrap;rectStyle=rounded;size=10;html=1;container=1;expand=0;collapsible=0;taskMarker=abstract;" vertex="1" parent="ncJrujkqdV2YsNTOufrD-3">
          <mxGeometry x="813" y="40" width="97" height="40" as="geometry" />
        </mxCell>
        <mxCell id="YiAbQRiZ3VMbAEbha5EH-67" value="выгрузка готового заказа" style="points=[[0.25,0,0],[0.5,0,0],[0.75,0,0],[1,0.25,0],[1,0.5,0],[1,0.75,0],[0.75,1,0],[0.5,1,0],[0.25,1,0],[0,0.75,0],[0,0.5,0],[0,0.25,0]];shape=mxgraph.bpmn.task;whiteSpace=wrap;rectStyle=rounded;size=10;html=1;container=1;expand=0;collapsible=0;taskMarker=abstract;" vertex="1" parent="ncJrujkqdV2YsNTOufrD-3">
          <mxGeometry x="813" y="110" width="97" height="40" as="geometry" />
        </mxCell>
        <mxCell id="YiAbQRiZ3VMbAEbha5EH-68" style="edgeStyle=orthogonalEdgeStyle;rounded=0;orthogonalLoop=1;jettySize=auto;html=1;exitX=0.5;exitY=1;exitDx=0;exitDy=0;exitPerimeter=0;entryX=0.5;entryY=0;entryDx=0;entryDy=0;entryPerimeter=0;" edge="1" parent="ncJrujkqdV2YsNTOufrD-3" source="YiAbQRiZ3VMbAEbha5EH-66" target="YiAbQRiZ3VMbAEbha5EH-67">
          <mxGeometry relative="1" as="geometry" />
        </mxCell>
        <mxCell id="YiAbQRiZ3VMbAEbha5EH-69" value="Битрикс" style="shape=datastore;html=1;labelPosition=center;verticalLabelPosition=bottom;align=center;verticalAlign=top;" vertex="1" parent="ncJrujkqdV2YsNTOufrD-3">
          <mxGeometry x="713" y="190" width="100" height="70" as="geometry" />
        </mxCell>
        <mxCell id="YiAbQRiZ3VMbAEbha5EH-72" style="edgeStyle=orthogonalEdgeStyle;rounded=0;orthogonalLoop=1;jettySize=auto;html=1;exitX=0;exitY=0.5;exitDx=0;exitDy=0;exitPerimeter=0;entryX=1;entryY=0.5;entryDx=0;entryDy=0;dashed=1;" edge="1" parent="ncJrujkqdV2YsNTOufrD-3" source="YiAbQRiZ3VMbAEbha5EH-70" target="YiAbQRiZ3VMbAEbha5EH-69">
          <mxGeometry relative="1" as="geometry" />
        </mxCell>
        <mxCell id="YiAbQRiZ3VMbAEbha5EH-70" value="Инфо о&amp;nbsp;&lt;br&gt;готовности заказа" style="shape=mxgraph.bpmn.data;labelPosition=center;verticalLabelPosition=bottom;align=center;verticalAlign=top;size=15;html=1;" vertex="1" parent="ncJrujkqdV2YsNTOufrD-3">
          <mxGeometry x="883" y="175" width="40" height="60" as="geometry" />
        </mxCell>
        <mxCell id="YiAbQRiZ3VMbAEbha5EH-73" style="edgeStyle=orthogonalEdgeStyle;rounded=0;orthogonalLoop=1;jettySize=auto;html=1;exitX=0.5;exitY=1;exitDx=0;exitDy=0;exitPerimeter=0;entryX=0;entryY=0;entryDx=12.5;entryDy=0;entryPerimeter=0;dashed=1;" edge="1" parent="ncJrujkqdV2YsNTOufrD-3" source="YiAbQRiZ3VMbAEbha5EH-67" target="YiAbQRiZ3VMbAEbha5EH-70">
          <mxGeometry relative="1" as="geometry" />
        </mxCell>
        <mxCell id="ncJrujkqdV2YsNTOufrD-4" value="Начальник произволдства" style="swimlane;html=1;startSize=20;horizontal=0;" parent="ncJrujkqdV2YsNTOufrD-1" vertex="1">
          <mxGeometry y="630" width="1170" height="270" as="geometry" />
        </mxCell>
        <mxCell id="YiAbQRiZ3VMbAEbha5EH-44" value="Получение инфо&amp;nbsp;&lt;br&gt;о недостаче" style="points=[[0.145,0.145,0],[0.5,0,0],[0.855,0.145,0],[1,0.5,0],[0.855,0.855,0],[0.5,1,0],[0.145,0.855,0],[0,0.5,0]];shape=mxgraph.bpmn.event;html=1;verticalLabelPosition=bottom;labelBackgroundColor=#ffffff;verticalAlign=top;align=center;perimeter=ellipsePerimeter;outlineConnect=0;aspect=fixed;outline=standard;symbol=message;" vertex="1" parent="ncJrujkqdV2YsNTOufrD-4">
          <mxGeometry x="82" y="70" width="50" height="50" as="geometry" />
        </mxCell>
        <mxCell id="YiAbQRiZ3VMbAEbha5EH-47" value="Оформление заявки на заказ металла" style="points=[[0.25,0,0],[0.5,0,0],[0.75,0,0],[1,0.25,0],[1,0.5,0],[1,0.75,0],[0.75,1,0],[0.5,1,0],[0.25,1,0],[0,0.75,0],[0,0.5,0],[0,0.25,0]];shape=mxgraph.bpmn.task;whiteSpace=wrap;rectStyle=rounded;size=10;html=1;container=1;expand=0;collapsible=0;taskMarker=abstract;" vertex="1" parent="ncJrujkqdV2YsNTOufrD-4">
          <mxGeometry x="193" y="67.5" width="120" height="55" as="geometry" />
        </mxCell>
        <mxCell id="YiAbQRiZ3VMbAEbha5EH-46" style="edgeStyle=orthogonalEdgeStyle;rounded=0;orthogonalLoop=1;jettySize=auto;html=1;" edge="1" parent="ncJrujkqdV2YsNTOufrD-4" source="YiAbQRiZ3VMbAEbha5EH-44" target="YiAbQRiZ3VMbAEbha5EH-47">
          <mxGeometry relative="1" as="geometry">
            <mxPoint x="203" y="95" as="targetPoint" />
          </mxGeometry>
        </mxCell>
        <mxCell id="YiAbQRiZ3VMbAEbha5EH-49" value="Оплата металла" style="shape=mxgraph.bpmn.data;labelPosition=center;verticalLabelPosition=bottom;align=center;verticalAlign=top;size=15;html=1;" vertex="1" parent="ncJrujkqdV2YsNTOufrD-4">
          <mxGeometry x="233" y="160" width="40" height="60" as="geometry" />
        </mxCell>
        <mxCell id="YiAbQRiZ3VMbAEbha5EH-48" style="edgeStyle=orthogonalEdgeStyle;rounded=0;orthogonalLoop=1;jettySize=auto;html=1;exitX=0.5;exitY=1;exitDx=0;exitDy=0;exitPerimeter=0;dashed=1;" edge="1" parent="ncJrujkqdV2YsNTOufrD-4" source="YiAbQRiZ3VMbAEbha5EH-47" target="YiAbQRiZ3VMbAEbha5EH-49">
          <mxGeometry relative="1" as="geometry">
            <mxPoint x="253" y="170" as="targetPoint" />
          </mxGeometry>
        </mxCell>
        <mxCell id="YiAbQRiZ3VMbAEbha5EH-51" value="Ожидание&lt;br&gt;доставки&amp;nbsp;" style="points=[[0.145,0.145,0],[0.5,0,0],[0.855,0.145,0],[1,0.5,0],[0.855,0.855,0],[0.5,1,0],[0.145,0.855,0],[0,0.5,0]];shape=mxgraph.bpmn.event;html=1;verticalLabelPosition=bottom;labelBackgroundColor=#ffffff;verticalAlign=top;align=center;perimeter=ellipsePerimeter;outlineConnect=0;aspect=fixed;outline=catching;symbol=timer;" vertex="1" parent="ncJrujkqdV2YsNTOufrD-4">
          <mxGeometry x="353" y="70" width="50" height="50" as="geometry" />
        </mxCell>
        <mxCell id="YiAbQRiZ3VMbAEbha5EH-50" style="edgeStyle=orthogonalEdgeStyle;rounded=0;orthogonalLoop=1;jettySize=auto;html=1;exitX=1;exitY=0.5;exitDx=0;exitDy=0;exitPerimeter=0;" edge="1" parent="ncJrujkqdV2YsNTOufrD-4" source="YiAbQRiZ3VMbAEbha5EH-47" target="YiAbQRiZ3VMbAEbha5EH-51">
          <mxGeometry relative="1" as="geometry">
            <mxPoint x="353" y="95" as="targetPoint" />
          </mxGeometry>
        </mxCell>
        <mxCell id="YiAbQRiZ3VMbAEbha5EH-54" value="Получение&amp;nbsp; металла по ТТН" style="points=[[0.25,0,0],[0.5,0,0],[0.75,0,0],[1,0.25,0],[1,0.5,0],[1,0.75,0],[0.75,1,0],[0.5,1,0],[0.25,1,0],[0,0.75,0],[0,0.5,0],[0,0.25,0]];shape=mxgraph.bpmn.task;whiteSpace=wrap;rectStyle=rounded;size=10;html=1;container=1;expand=0;collapsible=0;taskMarker=abstract;" vertex="1" parent="ncJrujkqdV2YsNTOufrD-4">
          <mxGeometry x="463" y="67.5" width="120" height="55" as="geometry" />
        </mxCell>
        <mxCell id="YiAbQRiZ3VMbAEbha5EH-55" style="edgeStyle=orthogonalEdgeStyle;rounded=0;orthogonalLoop=1;jettySize=auto;html=1;exitX=1;exitY=0.5;exitDx=0;exitDy=0;exitPerimeter=0;entryX=0;entryY=0.5;entryDx=0;entryDy=0;entryPerimeter=0;" edge="1" parent="ncJrujkqdV2YsNTOufrD-4" source="YiAbQRiZ3VMbAEbha5EH-51" target="YiAbQRiZ3VMbAEbha5EH-54">
          <mxGeometry relative="1" as="geometry" />
        </mxCell>
        <mxCell id="YiAbQRiZ3VMbAEbha5EH-56" value="Отправка ТТН&amp;nbsp;&lt;br&gt;в бухгалтерию" style="shape=mxgraph.bpmn.data;labelPosition=center;verticalLabelPosition=bottom;align=center;verticalAlign=top;size=15;html=1;" vertex="1" parent="ncJrujkqdV2YsNTOufrD-4">
          <mxGeometry x="493" y="160" width="40" height="60" as="geometry" />
        </mxCell>
        <mxCell id="YiAbQRiZ3VMbAEbha5EH-57" style="edgeStyle=orthogonalEdgeStyle;rounded=0;orthogonalLoop=1;jettySize=auto;html=1;exitX=0.5;exitY=1;exitDx=0;exitDy=0;exitPerimeter=0;entryX=0;entryY=0;entryDx=25;entryDy=0;entryPerimeter=0;dashed=1;" edge="1" parent="ncJrujkqdV2YsNTOufrD-4" source="YiAbQRiZ3VMbAEbha5EH-54" target="YiAbQRiZ3VMbAEbha5EH-56">
          <mxGeometry relative="1" as="geometry" />
        </mxCell>
        <mxCell id="YiAbQRiZ3VMbAEbha5EH-28" style="edgeStyle=orthogonalEdgeStyle;rounded=0;orthogonalLoop=1;jettySize=auto;html=1;entryX=0.5;entryY=0;entryDx=0;entryDy=0;entryPerimeter=0;dashed=1;" edge="1" parent="ncJrujkqdV2YsNTOufrD-1" source="YiAbQRiZ3VMbAEbha5EH-12" target="YiAbQRiZ3VMbAEbha5EH-21">
          <mxGeometry relative="1" as="geometry">
            <Array as="points">
              <mxPoint x="673" y="310" />
              <mxPoint x="98" y="310" />
            </Array>
          </mxGeometry>
        </mxCell>
        <mxCell id="YiAbQRiZ3VMbAEbha5EH-45" style="edgeStyle=orthogonalEdgeStyle;rounded=0;orthogonalLoop=1;jettySize=auto;html=1;exitX=0.5;exitY=1;exitDx=0;exitDy=0;exitPerimeter=0;entryX=0.5;entryY=0;entryDx=0;entryDy=0;entryPerimeter=0;" edge="1" parent="ncJrujkqdV2YsNTOufrD-1" source="YiAbQRiZ3VMbAEbha5EH-38" target="YiAbQRiZ3VMbAEbha5EH-44">
          <mxGeometry relative="1" as="geometry">
            <Array as="points">
              <mxPoint x="472" y="650" />
              <mxPoint x="107" y="650" />
            </Array>
          </mxGeometry>
        </mxCell>
        <mxCell id="YiAbQRiZ3VMbAEbha5EH-60" style="edgeStyle=orthogonalEdgeStyle;rounded=0;orthogonalLoop=1;jettySize=auto;html=1;exitX=1;exitY=0.5;exitDx=0;exitDy=0;exitPerimeter=0;entryX=0.5;entryY=1;entryDx=0;entryDy=0;entryPerimeter=0;" edge="1" parent="ncJrujkqdV2YsNTOufrD-1" source="YiAbQRiZ3VMbAEbha5EH-54" target="YiAbQRiZ3VMbAEbha5EH-59">
          <mxGeometry relative="1" as="geometry" />
        </mxCell>
      </root>
    </mxGraphModel>
  </diagram>
</mxfile>
